<svg width="60" height="40" viewBox="0 0 60 40" fill="none" xmlns="http://www.w3.org/2000/svg">
<g filter="url(#filter0_d_1006_2018)">
<path d="M56 0V21.5714C56 27.0943 51.5228 31.5714 46 31.5714H14C8.47715 31.5714 4 27.0943 4 21.5714V20.3424C4 14.8195 8.47716 10.3424 14 10.3424H44.0176C47.4765 10.3424 50.6897 8.55494 52.5139 5.6162L56 0Z" fill="url(#paint0_linear_1006_2018)"/>
</g>
<path d="M26.1895 17.6055L23.6406 25H22.0996L25.3105 16.4688H26.2949L26.1895 17.6055ZM28.3223 25L25.7676 17.6055L25.6562 16.4688H26.6465L29.8691 25H28.3223ZM28.1992 21.8359V23.002H23.5586V21.8359H28.1992ZM34.5508 23.6875V16H35.9688V25H34.6855L34.5508 23.6875ZM30.4258 21.9004V21.7773C30.4258 21.2969 30.4824 20.8594 30.5957 20.4648C30.709 20.0664 30.873 19.7246 31.0879 19.4395C31.3027 19.1504 31.5645 18.9297 31.873 18.7773C32.1816 18.6211 32.5293 18.543 32.916 18.543C33.2988 18.543 33.6348 18.6172 33.9238 18.7656C34.2129 18.9141 34.459 19.127 34.6621 19.4043C34.8652 19.6777 35.0273 20.0059 35.1484 20.3887C35.2695 20.7676 35.3555 21.1895 35.4062 21.6543V22.0469C35.3555 22.5 35.2695 22.9141 35.1484 23.2891C35.0273 23.6641 34.8652 23.9883 34.6621 24.2617C34.459 24.5352 34.2109 24.7461 33.918 24.8945C33.6289 25.043 33.291 25.1172 32.9043 25.1172C32.5215 25.1172 32.1758 25.0371 31.8672 24.877C31.5625 24.7168 31.3027 24.4922 31.0879 24.2031C30.873 23.9141 30.709 23.5742 30.5957 23.1836C30.4824 22.7891 30.4258 22.3613 30.4258 21.9004ZM31.8379 21.7773V21.9004C31.8379 22.1895 31.8633 22.459 31.9141 22.709C31.9688 22.959 32.0527 23.1797 32.166 23.3711C32.2793 23.5586 32.4258 23.707 32.6055 23.8164C32.7891 23.9219 33.0078 23.9746 33.2617 23.9746C33.582 23.9746 33.8457 23.9043 34.0527 23.7637C34.2598 23.623 34.4219 23.4336 34.5391 23.1953C34.6602 22.9531 34.7422 22.6836 34.7852 22.3867V21.3262C34.7617 21.0957 34.7129 20.8809 34.6387 20.6816C34.5684 20.4824 34.4727 20.3086 34.3516 20.1602C34.2305 20.0078 34.0801 19.8906 33.9004 19.8086C33.7246 19.7227 33.5156 19.6797 33.2734 19.6797C33.0156 19.6797 32.7969 19.7344 32.6172 19.8438C32.4375 19.9531 32.2891 20.1035 32.1719 20.2949C32.0586 20.4863 31.9746 20.709 31.9199 20.9629C31.8652 21.2168 31.8379 21.4883 31.8379 21.7773Z" fill="white"/>
<defs>
<filter id="filter0_d_1006_2018" x="0" y="0" width="60" height="39.5713" filterUnits="userSpaceOnUse" color-interpolation-filters="sRGB">
<feFlood flood-opacity="0" result="BackgroundImageFix"/>
<feColorMatrix in="SourceAlpha" type="matrix" values="0 0 0 0 0 0 0 0 0 0 0 0 0 0 0 0 0 0 127 0" result="hardAlpha"/>
<feOffset dy="4"/>
<feGaussianBlur stdDeviation="2"/>
<feComposite in2="hardAlpha" operator="out"/>
<feColorMatrix type="matrix" values="0 0 0 0 0 0 0 0 0 0 0 0 0 0 0 0 0 0 0.25 0"/>
<feBlend mode="normal" in2="BackgroundImageFix" result="effect1_dropShadow_1006_2018"/>
<feBlend mode="normal" in="SourceGraphic" in2="effect1_dropShadow_1006_2018" result="shape"/>
</filter>
<linearGradient id="paint0_linear_1006_2018" x1="30" y1="0" x2="30" y2="31.5714" gradientUnits="userSpaceOnUse">
<stop stop-color="#FF0000"/>
<stop offset="1" stop-color="#B50A0A"/>
</linearGradient>
</defs>
</svg>
